<svg width="20" height="20" viewBox="0 0 20 20" fill="none" xmlns="http://www.w3.org/2000/svg">
<path d="M14.1667 17.7083H5.83334C2.79167 17.7083 1.04167 15.9583 1.04167 12.9167V7.08334C1.04167 4.04167 2.79167 2.29167 5.83334 2.29167H14.1667C17.2083 2.29167 18.9583 4.04167 18.9583 7.08334V12.9167C18.9583 15.9583 17.2083 17.7083 14.1667 17.7083ZM5.83334 3.54167C3.45001 3.54167 2.29167 4.70001 2.29167 7.08334V12.9167C2.29167 15.3 3.45001 16.4583 5.83334 16.4583H14.1667C16.55 16.4583 17.7083 15.3 17.7083 12.9167V7.08334C17.7083 4.70001 16.55 3.54167 14.1667 3.54167H5.83334Z" fill="#484F58"/>
<path d="M9.999 10.725C9.299 10.725 8.59067 10.5083 8.049 10.0667L5.44067 7.98331C5.174 7.76664 5.12401 7.37498 5.34067 7.10831C5.55734 6.84164 5.94901 6.79164 6.21567 7.00831L8.824 9.09167C9.45733 9.6 10.5323 9.6 11.1657 9.09167L13.774 7.00831C14.0407 6.79164 14.4407 6.83331 14.649 7.10831C14.8657 7.37498 14.824 7.77498 14.549 7.98331L11.9407 10.0667C11.4073 10.5083 10.699 10.725 9.999 10.725Z" fill="#484F58"/>
</svg>
